<?xml version="1.0" encoding="utf-8"?>
<!-- Generator: Adobe Illustrator 21.0.0, SVG Export Plug-In . SVG Version: 6.00 Build 0)  -->
<svg version="1.1" id="Layer_1" xmlns="http://www.w3.org/2000/svg" xmlns:xlink="http://www.w3.org/1999/xlink" x="0px" y="0px"
	 viewBox="0 0 105 28" style="enable-background:new 0 0 105 28;" xml:space="preserve">
<style type="text/css">
	.st0{fill:#FFFFFF;}
	.st1{fill:#EFAC1F;}
	.st2{fill:#808080;}
</style>
<path class="st0" d="M1,10.3l1.9-1.2c0.3,0.6,0.8,1.1,1.3,1.5c0.6,0.3,1.2,0.5,1.8,0.5s1.1-0.1,1.5-0.3s0.6-0.6,0.6-1S7.9,9,7.5,8.8
	s-1-0.5-1.8-0.7c-0.5-0.2-1-0.3-1.5-0.5S3.2,7.2,2.8,7c-0.4-0.3-0.7-0.6-1-1C1.6,5.6,1.4,5.1,1.4,4.5c0-0.5,0.1-1,0.3-1.5
	c0.2-0.4,0.5-0.8,0.9-1.1s0.8-0.5,1.3-0.7S5,1,5.6,1s1.1,0.1,1.6,0.2s0.9,0.3,1.3,0.5c0.4,0.2,0.7,0.5,1,0.8s0.5,0.6,0.7,0.9
	L8.4,4.8C8.1,4.3,7.7,3.9,7.2,3.6S6.1,3.1,5.6,3.1s-1,0.1-1.2,0.3C4.1,3.6,4,3.9,4,4.3c0,0.5,0.2,0.8,0.6,1s1,0.5,1.8,0.7
	c0.5,0.2,1,0.3,1.5,0.5s1,0.4,1.4,0.6c0.4,0.3,0.7,0.6,1,1c0.2,0.4,0.4,0.9,0.4,1.5c0,0.5-0.1,0.9-0.3,1.3S9.9,11.7,9.6,12
	c-0.4,0.3-0.9,0.6-1.4,0.8s-1.3,0.3-2.1,0.3c-0.6,0-1.2-0.1-1.7-0.2c-0.5-0.1-1-0.3-1.4-0.6s-0.8-0.6-1.1-0.9
	C1.6,11.1,1.2,10.8,1,10.3z"/>
<path class="st0" d="M11.1,13l4.1-11.7h2.4L21.7,13h-2.6l-0.9-2.6h-4L13.3,13H11.1z M15,8.5h2.7l-1.3-4l0,0L15,8.5z"/>
<path class="st0" d="M23.3,13V1.4h4.2c0.6,0,1.2,0,1.8,0.1c0.6,0.1,1.1,0.3,1.5,0.6s0.8,0.7,1.1,1.1s0.4,1.1,0.4,1.9
	S32.2,6.5,31.9,7c-0.3,0.5-0.6,0.9-1.1,1.2c-0.5,0.3-1,0.5-1.5,0.6C28.7,8.9,28.2,9,27.6,9h-1.7v4.1h-2.6V13z M25.8,6.9h1.8
	c0.8,0,1.4-0.1,1.7-0.4s0.5-0.7,0.5-1.3c0-0.5-0.2-1-0.5-1.3s-0.9-0.4-1.7-0.4h-1.8V6.9z"/>
<path class="st1" d="M38,13V1.4h2.6V11h5.1v2.1H38V13z"/>
<path class="st1" d="M46.2,8.8c0-0.8,0.1-1.5,0.4-2.1c0.3-0.6,0.6-1,1-1.3C48,5.1,48.5,4.8,49,4.7c0.5-0.2,1-0.2,1.4-0.2
	s0.9,0.1,1.3,0.2c0.5,0.1,0.9,0.4,1.2,0.7c0.4,0.3,0.7,0.8,0.9,1.4s0.4,1.4,0.4,2.3v0.4h-5.6c0.1,0.7,0.3,1.2,0.6,1.4
	c0.4,0.3,0.8,0.4,1.3,0.4s1-0.1,1.4-0.3s0.8-0.4,1.1-0.7l1,1.5c-1,0.9-2.2,1.3-3.6,1.3c-0.5,0-1.1-0.1-1.6-0.2
	c-0.5-0.2-1-0.4-1.4-0.7s-0.7-0.8-1-1.3C46.3,10.3,46.2,9.6,46.2,8.8z M48.8,8h3.3c-0.1-1.2-0.7-1.7-1.6-1.7c-0.4,0-0.7,0.1-1,0.4
	C49.1,6.9,48.9,7.4,48.8,8z"/>
<path class="st1" d="M55.1,10.8c0-1,0.4-1.7,1.3-2.3c0.9-0.5,2.2-0.9,4-1V7.3c0-0.3-0.1-0.6-0.3-0.7c-0.2-0.2-0.5-0.3-0.9-0.3
	c-0.5,0-1,0.1-1.5,0.3c-0.5,0.2-0.9,0.4-1.3,0.8l-1.1-1.5c0.2-0.2,0.4-0.4,0.7-0.5c0.3-0.2,0.6-0.3,0.9-0.5c0.3-0.2,0.7-0.3,1.1-0.3
	c0.4-0.1,0.9-0.1,1.4-0.1c1.2,0,2,0.3,2.5,0.8c0.5,0.6,0.8,1.4,0.8,2.5V11c0,0.5,0,0.9,0.1,1.2s0.1,0.6,0.2,0.8h-2.5
	c-0.1-0.2-0.1-0.4-0.1-0.6s-0.1-0.4-0.1-0.7c-0.4,0.4-0.8,0.8-1.3,1S58,13,57.4,13c-0.3,0-0.6-0.1-0.9-0.1c-0.3-0.1-0.5-0.2-0.8-0.4
	c-0.2-0.2-0.4-0.4-0.5-0.7S55.1,11.2,55.1,10.8z M57.6,10.4c0,0.3,0.1,0.5,0.3,0.6s0.4,0.2,0.7,0.2c0.4,0,0.8-0.1,1.1-0.2
	c0.3-0.1,0.6-0.3,0.8-0.5V8.9c-1,0.1-1.7,0.3-2.2,0.5C57.8,9.7,57.6,10,57.6,10.4z"/>
<path class="st1" d="M64.7,13V4.6h2.5V6l0,0c0.1-0.2,0.3-0.4,0.4-0.5S68,5.2,68.2,5c0.2-0.1,0.5-0.3,0.8-0.4s0.6-0.1,1-0.1h0.1v2.2
	c-0.1,0-0.2,0-0.3,0s-0.3,0-0.4,0c-0.5,0-0.9,0.1-1.3,0.3c-0.4,0.2-0.7,0.5-0.9,0.8v5.3L64.7,13L64.7,13z"/>
<path class="st1" d="M71.4,13V4.6h2.5v1.3c0.1-0.2,0.3-0.3,0.5-0.5s0.4-0.3,0.6-0.5c0.2-0.1,0.5-0.3,0.8-0.4s0.6-0.1,1-0.1
	s0.7,0,1,0.1s0.6,0.2,0.8,0.4c0.2,0.2,0.4,0.4,0.5,0.8c0.1,0.3,0.2,0.7,0.2,1.1v6.1h-2.5V7.6c0-0.4-0.1-0.7-0.2-0.9
	c-0.2-0.2-0.4-0.3-0.8-0.3c-0.3,0-0.6,0.1-0.9,0.2C74.6,6.7,74.3,7,74,7.2v5.6h-2.6V13z"/>
<path class="st1" d="M81.2,3.4v-2h2.6v2H81.2z M81.2,13V4.6h2.5V13H81.2z"/>
<path class="st1" d="M85.8,13V4.6h2.5v1.3c0.1-0.2,0.3-0.3,0.5-0.5s0.4-0.3,0.6-0.5c0.2-0.1,0.5-0.3,0.8-0.4s0.6-0.1,1-0.1
	s0.7,0,1,0.1s0.6,0.2,0.8,0.4c0.2,0.2,0.4,0.4,0.5,0.8c0.1,0.3,0.2,0.7,0.2,1.1v6.1h-2.5V7.6c0-0.4-0.1-0.7-0.2-0.9
	c-0.2-0.2-0.4-0.3-0.8-0.3c-0.3,0-0.6,0.1-0.9,0.2C89,6.8,88.7,7,88.4,7.2v5.6h-2.6V13z"/>
<path class="st1" d="M94.4,14.2c0-0.4,0.1-0.8,0.4-1s0.6-0.5,1-0.7c-0.4-0.2-0.6-0.6-0.6-1c0-0.3,0.1-0.7,0.4-1
	c0.2-0.3,0.5-0.5,0.9-0.8c-0.5-0.3-0.8-0.6-1-1s-0.3-0.9-0.3-1.4c0-0.4,0.1-0.8,0.2-1.2c0.2-0.4,0.4-0.7,0.7-0.9
	c0.3-0.3,0.7-0.5,1.2-0.6c0.5-0.2,1-0.2,1.6-0.2s1.2,0.1,1.6,0.2c0.5,0.2,0.9,0.4,1.2,0.7c0.3-0.2,0.6-0.4,1-0.6s0.8-0.2,1.1-0.3
	v1.9c-0.1,0-0.3,0-0.6,0c-0.3,0-0.5,0.1-0.8,0.2c0.1,0.2,0.2,0.5,0.2,0.8c0,0.4-0.1,0.8-0.2,1.2c-0.2,0.4-0.4,0.7-0.7,1
	c-0.3,0.3-0.7,0.5-1.2,0.6c-0.5,0.2-1,0.2-1.6,0.2c-0.2,0-0.5,0-0.7,0s-0.4-0.1-0.6-0.1c-0.1,0.1-0.1,0.1-0.2,0.2
	c0,0.1-0.1,0.1-0.1,0.2c0,0.2,0.1,0.3,0.2,0.3c0.2,0,0.4,0.1,0.7,0.1l1.3,0.1c1.4,0.1,2.5,0.3,3.1,0.6s0.9,1,0.9,1.8
	c0,0.4-0.1,0.8-0.4,1.1s-0.6,0.6-1,0.8s-0.9,0.4-1.5,0.5c-0.6,0.1-1.2,0.2-1.9,0.2c-0.8,0-1.5,0-2.1-0.1s-1-0.2-1.3-0.4
	s-0.6-0.4-0.7-0.6C94.5,14.8,94.4,14.5,94.4,14.2z M96.8,13.8c0,0.4,0.2,0.6,0.5,0.8c0.4,0.2,1,0.3,1.8,0.3c0.7,0,1.2-0.1,1.6-0.2
	c0.4-0.2,0.6-0.4,0.6-0.6c0-0.1,0-0.2-0.1-0.3c0-0.1-0.2-0.2-0.3-0.2c-0.2-0.1-0.4-0.1-0.7-0.2c-0.3-0.1-0.7-0.1-1.2-0.1l-1.3-0.1
	h-0.6C96.9,13.2,96.8,13.5,96.8,13.8z M97.5,7.5c0,0.4,0.1,0.8,0.4,1.1C98.1,8.9,98.5,9,99,9s0.8-0.1,1.1-0.4
	c0.2-0.3,0.4-0.7,0.4-1.1s-0.1-0.8-0.4-1.1S99.5,6,99,6s-0.8,0.1-1.1,0.4C97.6,6.7,97.5,7.1,97.5,7.5z"/>
<g>
	<path class="st2" d="M1.5,23.1l0.6-0.2c0.2,0.5,0.4,0.9,0.8,1.1c0.3,0.2,0.8,0.4,1.3,0.4s1-0.1,1.3-0.3C5.8,23.9,6,23.6,6,23.2
		c0-0.2,0-0.3-0.1-0.5c-0.1-0.1-0.1-0.3-0.3-0.4C5.5,22.2,5.3,22.1,5,22c-0.2-0.1-0.5-0.2-0.9-0.3c-0.4-0.1-0.7-0.2-1-0.4
		c-0.3-0.2-0.5-0.3-0.7-0.4c-0.2-0.2-0.3-0.3-0.4-0.5s-0.1-0.5-0.1-0.7c0-0.3,0.1-0.5,0.2-0.7c0.1-0.2,0.3-0.4,0.5-0.6
		C2.8,18.2,3,18.1,3.3,18s0.6-0.1,0.9-0.1c0.3,0,0.6,0,0.9,0.1s0.5,0.2,0.7,0.3c0.2,0.1,0.4,0.3,0.5,0.5s0.3,0.4,0.3,0.7L6,19.8
		c-0.2-0.5-0.4-0.8-0.7-1c-0.3-0.2-0.7-0.3-1.1-0.3c-0.2,0-0.4,0-0.6,0.1c-0.2,0.1-0.3,0.1-0.5,0.2C3,18.9,2.9,19,2.8,19.2
		c-0.1,0.1-0.1,0.3-0.1,0.5s0,0.4,0.1,0.5s0.2,0.3,0.3,0.4c0.2,0.1,0.4,0.2,0.6,0.3c0.2,0.1,0.6,0.2,0.9,0.3c0.4,0.1,0.7,0.2,1,0.4
		c0.3,0.2,0.5,0.3,0.7,0.4c0.2,0.2,0.3,0.3,0.4,0.6c0.1,0.2,0.1,0.5,0.1,0.7c0,0.3-0.1,0.6-0.2,0.8c-0.1,0.2-0.3,0.4-0.5,0.6
		S5.6,25,5.3,25.1s-0.6,0.1-1,0.1c-0.7,0-1.2-0.2-1.7-0.5C2,24.1,1.7,23.7,1.5,23.1z"/>
	<path class="st2" d="M8,18.6v-0.7h0.7v0.7H8z M8,24.8v-5h0.7v5H8z"/>
	<path class="st2" d="M10.2,24.8v-5h0.7v0.8c0.3-0.2,0.5-0.5,0.8-0.6s0.6-0.3,1-0.3s0.7,0.1,1,0.3c0.2,0.2,0.4,0.4,0.4,0.7
		c0.3-0.2,0.6-0.5,0.9-0.6c0.3-0.2,0.7-0.3,1-0.3c0.5,0,0.9,0.1,1.1,0.4c0.2,0.3,0.3,0.6,0.3,1.1v3.6h-0.7v-3.5
		c0-0.4-0.1-0.6-0.2-0.8c-0.1-0.2-0.4-0.3-0.7-0.3s-0.6,0.1-0.9,0.2c-0.3,0.2-0.5,0.4-0.8,0.6v3.7h-0.7v-3.5c0-0.4-0.1-0.6-0.2-0.8
		c-0.1-0.2-0.4-0.3-0.7-0.3s-0.6,0.1-0.9,0.2c-0.3,0.2-0.5,0.4-0.8,0.6v3.7L10.2,24.8L10.2,24.8z"/>
	<path class="st2" d="M18.9,26.7v-6.9h0.7v0.7c0.2-0.2,0.4-0.4,0.7-0.6c0.3-0.2,0.6-0.2,1-0.2c0.3,0,0.6,0.1,0.8,0.2
		c0.3,0.1,0.5,0.3,0.7,0.5s0.3,0.5,0.4,0.8s0.2,0.7,0.2,1.2c0,0.4-0.1,0.8-0.2,1.2c-0.1,0.3-0.3,0.6-0.4,0.8
		c-0.2,0.2-0.4,0.4-0.7,0.5c-0.3,0.1-0.5,0.2-0.8,0.2s-0.6-0.1-0.9-0.2s-0.5-0.3-0.7-0.6v2.6h-0.8C18.9,26.9,18.9,26.7,18.9,26.7z
		 M19.6,23.5c0.2,0.3,0.5,0.5,0.8,0.6s0.5,0.2,0.8,0.2c0.2,0,0.4,0,0.6-0.1s0.3-0.2,0.5-0.4c0.2-0.2,0.2-0.4,0.3-0.6
		c0.1-0.3,0.1-0.6,0.1-0.9s0-0.7-0.1-0.9c-0.1-0.3-0.2-0.5-0.3-0.6c-0.1-0.2-0.3-0.3-0.5-0.4s-0.4-0.1-0.6-0.1
		c-0.3,0-0.6,0.1-0.8,0.2c-0.2,0.1-0.5,0.4-0.7,0.6L19.6,23.5L19.6,23.5z"/>
	<path class="st2" d="M24.7,24.8v-7.1h0.7v7.1H24.7z"/>
	<path class="st2" d="M26.2,26.6l0.1-0.5c0.1,0,0.2,0,0.3,0.1c0.1,0,0.3,0,0.4,0c0.3,0,0.5-0.1,0.6-0.2c0.2-0.1,0.3-0.3,0.4-0.6
		l0.2-0.6l-1.9-5.1H27l1.6,4.3l0,0l1.6-4.3h0.7l-2.2,5.6c-0.1,0.2-0.2,0.4-0.3,0.6c-0.1,0.2-0.2,0.3-0.3,0.4
		c-0.1,0.1-0.3,0.2-0.5,0.3c-0.2,0.1-0.4,0.1-0.6,0.1s-0.4,0-0.5,0C26.5,26.7,26.3,26.7,26.2,26.6z"/>
	<path class="st2" d="M34.2,24.8v-7.1h2.4c0.8,0,1.4,0.2,1.8,0.5c0.4,0.3,0.6,0.7,0.6,1.3c0,0.2,0,0.5-0.1,0.6s-0.2,0.3-0.3,0.5
		c-0.1,0.1-0.3,0.2-0.4,0.3C38,21,37.9,21,37.7,21.1l0,0c0.2,0,0.4,0.1,0.6,0.2c0.2,0.1,0.4,0.2,0.5,0.4c0.1,0.1,0.3,0.3,0.3,0.5
		c0.1,0.2,0.1,0.4,0.1,0.7c0,0.3,0,0.5-0.1,0.8s-0.2,0.4-0.4,0.6s-0.5,0.3-0.8,0.4s-0.7,0.1-1.1,0.1C36.8,24.8,34.2,24.8,34.2,24.8z
		 M34.9,20.9h1.7c0.6,0,1-0.1,1.3-0.3c0.3-0.2,0.5-0.5,0.5-1s-0.1-0.8-0.4-1c-0.3-0.2-0.7-0.3-1.3-0.3h-1.8V20.9z M34.9,24.2h2
		c0.6,0,1.1-0.1,1.3-0.3c0.3-0.2,0.4-0.6,0.4-1c0-0.5-0.2-0.8-0.5-1c-0.4-0.2-0.8-0.3-1.4-0.3h-1.8V24.2z"/>
	<path class="st2" d="M40.6,24.8v-5h0.7v1l0,0c0.2-0.3,0.5-0.6,0.8-0.8c0.3-0.2,0.7-0.3,1.2-0.3h0.1l-0.1,0.6h-0.1c0,0,0,0-0.1,0
		l0,0c-0.4,0-0.8,0.1-1.1,0.3c-0.3,0.2-0.6,0.5-0.8,0.9v3.3H40.6z"/>
	<path class="st2" d="M44.4,18.6v-0.7h0.7v0.7H44.4z M44.5,24.8v-5h0.7v5H44.5z"/>
	<path class="st2" d="M46.8,24.8v-7.1h0.7v7.1H46.8z"/>
	<path class="st2" d="M49,24.8v-7.1h0.7v7.1H49z"/>
	<path class="st2" d="M51.3,18.6v-0.7H52v0.7H51.3z M51.3,24.8v-5H52v5H51.3z"/>
	<path class="st2" d="M53.3,23.6c0-0.2,0.1-0.5,0.2-0.7c0.1-0.2,0.3-0.4,0.6-0.6s0.6-0.3,1.1-0.5c0.4-0.1,1-0.3,1.6-0.4v-0.3
		c0-0.4-0.1-0.6-0.3-0.8c-0.2-0.2-0.4-0.3-0.8-0.3c-0.4,0-0.7,0.1-1,0.2c-0.3,0.2-0.6,0.3-0.8,0.6l-0.4-0.4c0.3-0.3,0.6-0.5,1-0.7
		s0.8-0.3,1.3-0.3c0.6,0,1,0.1,1.2,0.4c0.3,0.3,0.4,0.7,0.4,1.2v2.3c0,0.3,0,0.6,0,0.8c0,0.2,0.1,0.4,0.1,0.5h-0.7
		c0-0.1-0.1-0.2-0.1-0.3c0-0.1,0-0.2,0-0.4c-0.3,0.3-0.6,0.5-0.9,0.6c-0.3,0.1-0.7,0.2-1.1,0.2c-0.5,0-0.8-0.1-1.1-0.3
		C53.4,24.3,53.3,24,53.3,23.6z M53.9,23.5c0,0.3,0.1,0.5,0.2,0.6c0.2,0.1,0.4,0.2,0.7,0.2c0.4,0,0.7-0.1,1-0.2s0.6-0.3,0.8-0.6
		v-1.6c-0.5,0.1-1,0.2-1.3,0.3c-0.4,0.1-0.6,0.2-0.8,0.4c-0.2,0.1-0.4,0.3-0.4,0.4C54,23.2,53.9,23.4,53.9,23.5z"/>
	<path class="st2" d="M58.8,24.8v-5h0.7v0.8c0.2-0.2,0.5-0.5,0.8-0.6s0.7-0.3,1.1-0.3c0.5,0,0.9,0.1,1.1,0.4
		c0.2,0.3,0.4,0.6,0.4,1.1v3.6h-0.7v-3.5c0-0.4-0.1-0.6-0.2-0.8c-0.2-0.2-0.4-0.3-0.8-0.3c-0.3,0-0.6,0.1-0.9,0.2
		c-0.3,0.2-0.6,0.4-0.9,0.6v3.7L58.8,24.8L58.8,24.8z"/>
	<path class="st2" d="M63.8,20.3v-0.6h0.9v-1.8h0.7v1.8h1.3v0.6h-1.3v3.2c0,0.3,0.1,0.5,0.2,0.6s0.3,0.2,0.6,0.2c0.1,0,0.2,0,0.3,0
		c0.1,0,0.2,0,0.2,0v0.5c-0.1,0-0.2,0-0.3,0c-0.1,0-0.2,0-0.4,0c-0.5,0-0.8-0.1-1-0.3c-0.2-0.2-0.3-0.5-0.3-0.9v-3.3L63.8,20.3
		L63.8,20.3z"/>
</g>
</svg>
