<?xml version="1.0" encoding="utf-8"?>
<!-- Generator: Adobe Illustrator 18.0.0, SVG Export Plug-In . SVG Version: 6.00 Build 0)  -->
<!DOCTYPE svg PUBLIC "-//W3C//DTD SVG 1.1//EN" "http://www.w3.org/Graphics/SVG/1.1/DTD/svg11.dtd">
<svg version="1.1" id="Layer_1" xmlns="http://www.w3.org/2000/svg" xmlns:xlink="http://www.w3.org/1999/xlink" x="0px" y="0px"
	 viewBox="0 0 55 27.5" enable-background="new 0 0 55 27.5" xml:space="preserve">
<g>
	<g>
		<g>
			
				<linearGradient id="SVGID_1_" gradientUnits="userSpaceOnUse" x1="36.5878" y1="1095.9838" x2="36.5878" y2="1059.8025" gradientTransform="matrix(0.7516 0 0 -0.7516 0 823.7286)">
				<stop  offset="0" style="stop-color:#00B8F1"/>
				<stop  offset="1.644576e-02" style="stop-color:#01B6F0"/>
				<stop  offset="0.3079" style="stop-color:#0D90D9"/>
				<stop  offset="0.5782" style="stop-color:#1775C8"/>
				<stop  offset="0.8173" style="stop-color:#1C65BF"/>
				<stop  offset="1" style="stop-color:#1E5FBB"/>
			</linearGradient>
			<polyline fill="url(#SVGID_1_)" points="0,27.2 27.7,27.2 55,0 0,0 0,27.2 			"/>
		</g>
		<path fill="#FFFFFF" d="M32.6,5.1h-5.4V18L22.5,5h-4.7l-4,10.8c-0.5-2.8-3.2-3.7-5.4-4.4c-1.5-0.5-3-1.1-3-1.9
			c0-0.6,0.8-1.2,2.4-1.1c1.1,0.1,2.1,0.2,4,1.1l1.9-3.3c-1.8-0.9-4.1-1.5-6.1-1.5l0,0c-2.3,0-4.2,0.8-5.4,2c-0.8,0.8-1.3,2-1.3,3.1
			c0,1.7,0.6,2.8,1.8,3.7c1.1,0.8,2.4,1.3,3.7,1.7c1.5,0.5,2.8,0.8,2.8,1.8c0,0.3-0.2,0.6-0.4,0.8c-0.4,0.4-0.9,0.5-1.8,0.5
			c-1.5,0-2.7-0.2-4.5-1.3l-1.7,3.3c1.8,1,4,1.6,6.1,1.6h0.3c1.9,0,3.4-0.6,4.7-1.5c0.1-0.1,0.2-0.1,0.2-0.2l-0.5,1.5h4.9l0.8-2.5
			c0.8,0.3,1.8,0.5,2.9,0.5c1,0,2-0.2,2.8-0.5l0.8,2.5h8v-5.2h1.8c4.2,0,6.7-2.1,6.7-5.7C40.2,7,37.8,5.1,32.6,5.1z M20.1,16.1
			c-0.6,0-1.2-0.1-1.8-0.3l1.7-5.4l0,0l1.7,5.4C21.3,16,20.7,16.1,20.1,16.1z M32.9,13h-1.2V8.6h1.2c1.6,0,2.8,0.5,2.8,2.1
			C35.7,12.5,34.5,13,32.9,13"/>
	</g>
	<path fill="#1E5FBB" d="M34.4,25.4c0-0.8,0.6-1.5,1.5-1.5c0.8,0,1.5,0.6,1.5,1.5s-0.6,1.5-1.5,1.5C35,26.9,34.4,26.2,34.4,25.4z
		 M35.7,27.1c1,0,1.8-0.8,1.8-1.8c0-1-0.8-1.8-1.8-1.8c-1,0-1.8,0.8-1.8,1.8C34,26.4,34.8,27.1,35.7,27.1z M35.4,25.5h0.4l0.5,0.8
		h0.4l-0.6-0.9c0.3,0,0.5-0.2,0.5-0.5c0-0.4-0.2-0.6-0.7-0.6h-0.8v2.1h0.3L35.4,25.5L35.4,25.5z M35.4,25.3v-0.6h0.4
		c0.2,0,0.5,0.1,0.5,0.3c0,0.3-0.2,0.3-0.5,0.3H35.4z"/>
</g>
</svg>
