<?xml version="1.0" encoding="utf-8"?>
<!-- Generator: Adobe Illustrator 18.0.0, SVG Export Plug-In . SVG Version: 6.00 Build 0)  -->
<!DOCTYPE svg PUBLIC "-//W3C//DTD SVG 1.1//EN" "http://www.w3.org/Graphics/SVG/1.1/DTD/svg11.dtd">
<svg version="1.1" id="rgb" xmlns="http://www.w3.org/2000/svg" xmlns:xlink="http://www.w3.org/1999/xlink" x="0px" y="0px"
	 viewBox="0 0 186 35" enable-background="new 0 0 186 35" xml:space="preserve">
<g>
	<g>
		<g>
			<path fill="#F5F5F5" d="M1.8,21.7l3.4-2.1c0.6,1.1,1.4,2,2.3,2.6s2.1,0.9,3.3,0.9c1.1,0,1.9-0.2,2.6-0.6s1-1,1-1.8
				c0-0.8-0.4-1.4-1.1-1.8c-0.7-0.4-1.8-0.8-3.1-1.2c-0.9-0.3-1.8-0.6-2.7-0.8c-0.9-0.3-1.7-0.6-2.4-1.1s-1.3-1-1.7-1.7
				c-0.4-0.7-0.7-1.6-0.7-2.7c0-1,0.2-1.8,0.5-2.6s0.9-1.4,1.5-1.9c0.7-0.5,1.4-0.9,2.4-1.2C8,5.4,9,5.3,10.1,5.3
				c1.1,0,2,0.1,2.9,0.3s1.6,0.5,2.3,0.9s1.3,0.8,1.8,1.4s0.9,1,1.3,1.6l-3.2,2.4c-0.5-0.9-1.3-1.6-2.2-2.1s-1.9-0.8-2.9-0.8
				c-1,0-1.7,0.2-2.2,0.6s-0.8,0.9-0.8,1.5c0,0.8,0.4,1.5,1.1,1.9s1.8,0.8,3.1,1.2c0.9,0.3,1.8,0.6,2.7,0.8c0.9,0.3,1.7,0.7,2.4,1.1
				c0.7,0.5,1.3,1.1,1.7,1.8c0.4,0.7,0.7,1.6,0.7,2.6c0,0.8-0.2,1.6-0.5,2.4c-0.3,0.8-0.8,1.4-1.5,2s-1.5,1-2.6,1.4
				c-1,0.3-2.3,0.5-3.7,0.5c-1.1,0-2.1-0.1-3.1-0.4c-0.9-0.3-1.7-0.6-2.5-1.1s-1.4-1-1.9-1.6C2.6,23.1,2.2,22.4,1.8,21.7z"/>
			<path fill="#F5F5F5" d="M19.7,26.4L27,5.6h4.3l7.3,20.8h-4.6l-1.5-4.6h-7.1l-1.6,4.6H19.7z M26.6,18.4h4.9l-2.4-7.1H29L26.6,18.4
				z"/>
			<path fill="#F5F5F5" d="M41.2,26.4V5.6h7.5c1.1,0,2.2,0.1,3.2,0.3c1,0.2,1.9,0.5,2.7,1c0.8,0.5,1.4,1.2,1.9,2
				c0.5,0.9,0.7,2,0.7,3.3c0,1.4-0.2,2.6-0.7,3.4c-0.5,0.9-1.1,1.6-2,2.1c-0.8,0.5-1.7,0.8-2.8,1c-1,0.2-2,0.3-3.1,0.3h-2.9v7.3
				H41.2z M45.7,15.5h3.1c1.4,0,2.4-0.3,3-0.8c0.6-0.5,0.9-1.3,0.9-2.3c0-1-0.3-1.7-0.9-2.3s-1.6-0.8-3-0.8h-3.1V15.5z"/>
		</g>
	</g>
	<g>
		<g>
			<path fill="#F0AB00" d="M66.9,26.4V5.6h4.6v17h9.1v3.7H66.9z"/>
			<path fill="#F0AB00" d="M81.4,18.9c0-1.5,0.2-2.7,0.7-3.7c0.5-1,1.1-1.8,1.9-2.4c0.7-0.6,1.6-1,2.4-1.3c0.9-0.3,1.7-0.4,2.5-0.4
				s1.6,0.1,2.4,0.3c0.8,0.2,1.6,0.7,2.2,1.3c0.7,0.6,1.2,1.5,1.6,2.5c0.4,1.1,0.6,2.5,0.6,4.2v0.7h-9.9c0.1,1.2,0.5,2.1,1.1,2.6
				c0.6,0.5,1.4,0.8,2.4,0.8c0.9,0,1.7-0.2,2.5-0.5c0.8-0.4,1.4-0.8,1.9-1.2l1.7,2.7c-1.8,1.5-3.9,2.3-6.5,2.3c-1,0-1.9-0.1-2.8-0.4
				s-1.7-0.7-2.4-1.3c-0.7-0.6-1.3-1.4-1.7-2.4C81.6,21.6,81.4,20.4,81.4,18.9z M85.9,17.5h5.8c-0.2-2.1-1.2-3.1-2.9-3.1
				c-0.7,0-1.3,0.2-1.9,0.7C86.5,15.6,86.1,16.4,85.9,17.5z"/>
			<path fill="#F0AB00" d="M97.1,22.5c0-1.7,0.8-3.1,2.3-4c1.5-1,3.9-1.6,7.2-1.9v-0.4c0-0.6-0.2-1-0.5-1.3
				c-0.3-0.3-0.8-0.5-1.6-0.5c-0.9,0-1.8,0.2-2.6,0.5c-0.8,0.3-1.6,0.8-2.2,1.3l-1.9-2.6c0.4-0.3,0.8-0.6,1.3-1s1-0.6,1.6-0.9
				c0.6-0.2,1.3-0.4,2-0.6c0.8-0.1,1.6-0.2,2.5-0.2c2.1,0,3.5,0.5,4.4,1.5c0.9,1,1.3,2.4,1.3,4.4v5.7c0,0.9,0,1.6,0.1,2.2
				c0.1,0.6,0.2,1.1,0.3,1.4h-4.5c-0.1-0.3-0.2-0.7-0.2-1s-0.1-0.7-0.1-1.2c-0.7,0.8-1.4,1.4-2.3,1.8s-1.8,0.6-2.9,0.6
				c-0.6,0-1.1-0.1-1.6-0.3c-0.5-0.2-1-0.4-1.4-0.8c-0.4-0.3-0.7-0.8-0.9-1.3C97.2,23.8,97.1,23.2,97.1,22.5z M101.5,21.8
				c0,0.5,0.2,0.8,0.5,1.1c0.3,0.2,0.7,0.4,1.2,0.4c0.8,0,1.5-0.1,2-0.4s1-0.6,1.4-0.9v-2.8c-1.8,0.2-3.1,0.5-3.9,0.9
				S101.5,21.1,101.5,21.8z"/>
			<path fill="#F0AB00" d="M114.1,26.4V11.4h4.5v2.4h0c0.2-0.3,0.4-0.6,0.7-0.9s0.6-0.6,1-0.9c0.4-0.3,0.9-0.5,1.4-0.7
				c0.5-0.2,1.2-0.3,1.9-0.3h0.2l-0.1,3.9c-0.1,0-0.3,0-0.5-0.1c-0.3,0-0.5,0-0.6,0c-0.9,0-1.7,0.2-2.3,0.6
				c-0.7,0.4-1.2,0.9-1.6,1.4v9.4H114.1z"/>
			<path fill="#F0AB00" d="M125.8,26.4V11.4h4.5v2.3c0.2-0.3,0.5-0.6,0.8-0.9s0.7-0.6,1.1-0.8s0.9-0.5,1.4-0.6
				c0.5-0.2,1.1-0.3,1.8-0.3c0.6,0,1.2,0.1,1.8,0.3c0.5,0.2,1,0.4,1.4,0.8c0.4,0.3,0.7,0.8,0.9,1.3c0.2,0.5,0.3,1.2,0.3,2v10.9h-4.5
				v-9.5c0-0.7-0.1-1.2-0.4-1.5c-0.3-0.3-0.7-0.5-1.4-0.5c-0.6,0-1.2,0.1-1.7,0.4s-1.1,0.6-1.6,1.1v10H125.8z"/>
			<path fill="#F0AB00" d="M143.1,9.4V5.8h4.6v3.6H143.1z M143.1,26.4V11.4h4.5v14.9H143.1z"/>
			<path fill="#F0AB00" d="M151.1,26.4V11.4h4.5v2.3c0.2-0.3,0.5-0.6,0.8-0.9s0.7-0.6,1.1-0.8c0.4-0.3,0.9-0.5,1.4-0.6
				c0.5-0.2,1.1-0.3,1.8-0.3c0.6,0,1.2,0.1,1.8,0.3c0.5,0.2,1,0.4,1.4,0.8c0.4,0.3,0.7,0.8,0.9,1.3c0.2,0.5,0.3,1.2,0.3,2v10.9h-4.5
				v-9.5c0-0.7-0.1-1.2-0.4-1.5s-0.7-0.5-1.4-0.5c-0.6,0-1.2,0.1-1.7,0.4s-1.1,0.6-1.6,1.1v10H151.1z"/>
			<path fill="#F0AB00" d="M166.4,28.6c0-0.7,0.3-1.3,0.8-1.8c0.5-0.5,1.1-0.9,1.8-1.2c-0.7-0.4-1-1-1-1.8c0-0.6,0.2-1.2,0.6-1.7
				c0.4-0.5,0.9-1,1.5-1.3c-0.8-0.5-1.4-1.1-1.8-1.8c-0.4-0.7-0.6-1.6-0.6-2.5c0-0.7,0.1-1.4,0.4-2.1c0.3-0.6,0.7-1.2,1.3-1.7
				c0.6-0.5,1.3-0.9,2.1-1.1c0.8-0.3,1.8-0.4,2.9-0.4c1.1,0,2.1,0.1,2.9,0.4c0.8,0.3,1.5,0.7,2.1,1.2c0.5-0.4,1.1-0.8,1.8-1.1
				c0.7-0.3,1.4-0.4,2-0.5v3.4c-0.3,0-0.6,0-1.1,0.1s-0.9,0.1-1.5,0.3c0.2,0.4,0.3,0.9,0.3,1.5c0,0.8-0.1,1.5-0.4,2.1
				c-0.3,0.6-0.7,1.2-1.3,1.7c-0.6,0.5-1.3,0.9-2.1,1.1c-0.8,0.3-1.8,0.4-2.8,0.4c-0.4,0-0.8,0-1.2-0.1c-0.4,0-0.7-0.1-1.1-0.2
				c-0.1,0.1-0.3,0.2-0.3,0.4c-0.1,0.1-0.1,0.2-0.1,0.4c0,0.3,0.1,0.5,0.4,0.5c0.3,0.1,0.7,0.1,1.2,0.2l2.2,0.1
				c2.6,0.1,4.4,0.5,5.5,1.1c1.1,0.7,1.7,1.7,1.7,3.1c0,0.8-0.2,1.4-0.7,2c-0.4,0.6-1,1.1-1.8,1.4c-0.8,0.4-1.7,0.7-2.7,0.8
				c-1.1,0.2-2.2,0.3-3.4,0.3c-1.5,0-2.7-0.1-3.7-0.2s-1.8-0.4-2.4-0.7c-0.6-0.3-1-0.6-1.3-1.1C166.5,29.6,166.4,29.1,166.4,28.6z
				 M170.6,27.8c0,0.7,0.3,1.1,1,1.4c0.6,0.3,1.7,0.5,3.3,0.5c1.2,0,2.1-0.1,2.8-0.4c0.7-0.3,1.1-0.7,1.1-1.1c0-0.2,0-0.4-0.1-0.6
				c-0.1-0.2-0.3-0.3-0.5-0.4s-0.7-0.2-1.2-0.3c-0.5-0.1-1.2-0.1-2.1-0.2l-2.3-0.1l-1-0.1C170.9,26.8,170.6,27.3,170.6,27.8z
				 M171.8,16.6c0,0.8,0.2,1.4,0.7,1.9c0.4,0.5,1.1,0.8,1.9,0.8c0.8,0,1.5-0.3,1.9-0.8c0.4-0.5,0.6-1.2,0.6-1.9
				c0-0.8-0.2-1.4-0.6-1.9c-0.4-0.5-1.1-0.7-1.9-0.7c-0.9,0-1.5,0.2-1.9,0.7C172.1,15.2,171.8,15.8,171.8,16.6z"/>
		</g>
	</g>
</g>
</svg>
